<svg xmlns="http://www.w3.org/2000/svg" fill="#868686" viewBox="0 0 32 32">
  <path fill-rule="evenodd" d="M28.876 3.124C24.71-1.04 7.29-1.04 3.124 3.124c-4.165 4.166-4.165 21.586 0 25.752 4.166 4.165 21.586 4.165 25.752 0 4.165-4.166 4.165-21.586 0-25.752Zm-17.672 3.56a.615.615 0 1 0-.624-1.06c-1.066.627-2.11 1.34-2.97 2.265a.615.615 0 0 0 .902.837c.74-.797 1.666-1.438 2.692-2.042Zm3.3.798a.615.615 0 0 1-.447.746c-2.507.627-4.512 2.453-5.489 4.808a.615.615 0 1 1-1.136-.472c1.116-2.691 3.418-4.803 6.326-5.53a.615.615 0 0 1 .747.448ZM16 10.462a5.538 5.538 0 0 0-.615 11.043v1.237a6.77 6.77 0 1 1 2.461-.228v4.563a.615.615 0 0 1-1.23 0v-8.062a3.078 3.078 0 1 0-1.231 0v1.25a4.309 4.309 0 1 1 2.461-.372v1.33A5.54 5.54 0 0 0 16 10.462Zm-7.432 8.502a.615.615 0 0 0-1.136.472c1.116 2.691 3.418 4.803 6.326 5.53a.615.615 0 0 0 .299-1.194c-2.507-.627-4.512-2.453-5.489-4.808Zm16.065-6.208a.615.615 0 1 0-1.143.457c.337.843.51 1.81.51 2.787 0 .977-.173 1.944-.51 2.787a.615.615 0 1 0 1.143.457c.401-1.004.598-2.128.598-3.244s-.197-2.24-.598-3.244ZM7.643 23.18a.615.615 0 0 1 .87.032c.75.807 1.678 1.505 2.667 2.029a.615.615 0 0 1-.576 1.087 11.394 11.394 0 0 1-2.993-2.279.615.615 0 0 1 .032-.87Zm19.296-9.268a.615.615 0 0 1 .687.535c.066.53.066 1.055.066 1.536v.045c0 .475 0 1.032-.141 1.598a.616.616 0 0 1-1.194-.298c.102-.407.105-.824.105-1.328 0-.498-.001-.953-.057-1.4a.615.615 0 0 1 .534-.688ZM16 17.846a1.846 1.846 0 1 0 0-3.692 1.846 1.846 0 0 0 0 3.692Z" clip-rule="evenodd"/>
</svg>
